{
  "accessors": [
    {
      "bufferView": 2,
      "componentType": 5126,
      "count": 43133,
      "max": [
        50.753936767578125,
        20.0,
        51.27983856201172
      ],
      "min": [
        -51.27983856201172,
        -1.6321084217452153e-07,
        -50.753936767578125
      ],
      "type": "VEC3"
    },
    {
      "bufferView": 2,
      "byteOffset": 517596,
      "componentType": 5126,
      "count": 43133,
      "max": [
        1.0,
        1.0,
        1.0
      ],
      "min": [
        -1.0,
        -1.0,
        -1.0
      ],
      "type": "VEC3"
    },
    {
      "bufferView": 1,
      "componentType": 5126,
      "count": 43133,
      "max": [
        0.0,
        0.0
      ],
      "min": [
        0.0,
        0.0
      ],
      "type": "VEC2"
    },
    {
      "bufferView": 0,
      "componentType": 5125,
      "count": 84717,
      "type": "SCALAR"
    },
    {
      "bufferView": 2,
      "byteOffset": 1035192,
      "componentType": 5126,
      "count": 64449,
      "max": [
        50.753936767578125,
        19.92850112915039,
        51.27983856201172
      ],
      "min": [
        -51.27983856201172,
        0.985139012336731,
        -50.753936767578125
      ],
      "type": "VEC3"
    },
    {
      "bufferView": 2,
      "byteOffset": 1808580,
      "componentType": 5126,
      "count": 64449,
      "max": [
        1.0,
        1.0,
        1.0
      ],
      "min": [
        -1.0,
        -1.0,
        -1.0
      ],
      "type": "VEC3"
    },
    {
      "bufferView": 1,
      "byteOffset": 345064,
      "componentType": 5126,
      "count": 64449,
      "max": [
        1.0,
        1.0
      ],
      "min": [
        0.0,
        0.0
      ],
      "type": "VEC2"
    },
    {
      "bufferView": 0,
      "byteOffset": 338868,
      "componentType": 5125,
      "count": 164658,
      "type": "SCALAR"
    },
    {
      "bufferView": 2,
      "byteOffset": 2581968,
      "componentType": 5126,
      "count": 6093,
      "max": [
        49.911434173583984,
        19.915000915527344,
        50.43733596801758
      ],
      "min": [
        -50.43733596801758,
        1.3114986419677734,
        -49.911434173583984
      ],
      "type": "VEC3"
    },
    {
      "bufferView": 2,
      "byteOffset": 2655084,
      "componentType": 5126,
      "count": 6093,
      "max": [
        1.0,
        1.0,
        1.0
      ],
      "min": [
        -1.0,
        -1.0,
        -1.0
      ],
      "type": "VEC3"
    },
    {
      "bufferView": 1,
      "byteOffset": 860656,
      "componentType": 5126,
      "count": 6093,
      "max": [
        0.0,
        0.0
      ],
      "min": [
        0.0,
        0.0
      ],
      "type": "VEC2"
    },
    {
      "bufferView": 0,
      "byteOffset": 997500,
      "componentType": 5125,
      "count": 13821,
      "type": "SCALAR"
    },
    {
      "bufferView": 2,
      "byteOffset": 2728200,
      "componentType": 5126,
      "count": 6000,
      "max": [
        50.64593505859375,
        19.892000198364258,
        51.171836853027344
      ],
      "min": [
        -51.171836853027344,
        1.0206916332244873,
        -50.64593505859375
      ],
      "type": "VEC3"
    },
    {
      "bufferView": 2,
      "byteOffset": 2800200,
      "componentType": 5126,
      "count": 6000,
      "max": [
        1.0,
        1.0,
        1.0
      ],
      "min": [
        -1.0,
        -1.0,
        -1.0
      ],
      "type": "VEC3"
    },
    {
      "bufferView": 1,
      "byteOffset": 909400,
      "componentType": 5126,
      "count": 6000,
      "max": [
        0.0,
        0.0
      ],
      "min": [
        0.0,
        0.0
      ],
      "type": "VEC2"
    },
    {
      "bufferView": 0,
      "byteOffset": 1052784,
      "componentType": 5125,
      "count": 11484,
      "type": "SCALAR"
    },
    {
      "bufferView": 2,
      "byteOffset": 2872200,
      "componentType": 5126,
      "count": 128,
      "max": [
        49.753936767578125,
        1.0,
        50.27983856201172
      ],
      "min": [
        -50.27983856201172,
        0.0,
        -49.753936767578125
      ],
      "type": "VEC3"
    },
    {
      "bufferView": 2,
      "byteOffset": 2873736,
      "componentType": 5126,
      "count": 128,
      "max": [
        1.0,
        1.0,
        1.0
      ],
      "min": [
        -1.0,
        -1.0,
        -1.0
      ],
      "type": "VEC3"
    },
    {
      "bufferView": 1,
      "byteOffset": 957400,
      "componentType": 5126,
      "count": 128,
      "max": [
        0.0,
        0.0
      ],
      "min": [
        0.0,
        0.0
      ],
      "type": "VEC2"
    },
    {
      "bufferView": 0,
      "byteOffset": 1098720,
      "componentType": 5125,
      "count": 264,
      "type": "SCALAR"
    }
  ],
  "asset": {
    "extras": {
      "author": "Giimann (https://sketchfab.com/giimann)",
      "license": "SKETCHFAB Standard (https://sketchfab.com/licenses)",
      "source": "https://sketchfab.com/3d-models/futuristic-interior-3003-e7da3c2f7fd949db9109ae446f5943d4",
      "title": "Futuristic Interior 3003"
    },
    "generator": "Sketchfab-14.48.0",
    "version": "2.0"
  },
  "bufferViews": [
    {
      "buffer": 0,
      "byteLength": 1099776,
      "name": "floatBufferViews",
      "target": 34963
    },
    {
      "buffer": 0,
      "byteLength": 958424,
      "byteOffset": 1099776,
      "byteStride": 8,
      "name": "floatBufferViews",
      "target": 34962
    },
    {
      "buffer": 0,
      "byteLength": 2875272,
      "byteOffset": 2058200,
      "byteStride": 12,
      "name": "floatBufferViews",
      "target": 34962
    }
  ],
  "buffers": [
    {
      "byteLength": 4933472,
      "uri": "scene.bin"
    }
  ],
  "materials": [
    {
      "doubleSided": true,
      "name": "Walls",
      "pbrMetallicRoughness": {
        "metallicFactor": 0.0,
        "roughnessFactor": 0.042294850537622566
      }
    },
    {
      "doubleSided": true,
      "name": "Metal",
      "pbrMetallicRoughness": {
        "metallicFactor": 0.2357586561452395,
        "roughnessFactor": 0.042294850537622566
      }
    },
    {
      "doubleSided": true,
      "emissiveFactor": [
        1.0,
        1.0,
        1.0
      ],
      "name": "Light",
      "pbrMetallicRoughness": {
        "metallicFactor": 0.0,
        "roughnessFactor": 0.9577051494623774
      }
    },
    {
      "alphaMode": "BLEND",
      "doubleSided": true,
      "name": "Glass",
      "pbrMetallicRoughness": {
        "baseColorFactor": [
          0.10942840910531912,
          0.21133384784087317,
          0.26651984652910465,
          0.44870195846997196
        ],
        "metallicFactor": 0.0,
        "roughnessFactor": 0.9577051494623774
      }
    },
    {
      "doubleSided": true,
      "name": "Floor",
      "pbrMetallicRoughness": {
        "baseColorFactor": [
          0.7511371806237102,
          0.7436508867755813,
          0.7436508867755813,
          1.0
        ],
        "metallicFactor": 0.7529066760767326,
        "roughnessFactor": 0.19961965598371345
      }
    }
  ],
  "meshes": [
    {
      "name": "Futuristic_interior_builder_a1_Walls_0",
      "primitives": [
        {
          "attributes": {
            "NORMAL": 1,
            "POSITION": 0,
            "TEXCOORD_0": 2
          },
          "indices": 3,
          "material": 0,
          "mode": 4
        }
      ]
    },
    {
      "name": "Futuristic_interior_builder_a1_Metal_0",
      "primitives": [
        {
          "attributes": {
            "NORMAL": 5,
            "POSITION": 4,
            "TEXCOORD_0": 6
          },
          "indices": 7,
          "material": 1,
          "mode": 4
        }
      ]
    },
    {
      "name": "Futuristic_interior_builder_a1_Light_0",
      "primitives": [
        {
          "attributes": {
            "NORMAL": 9,
            "POSITION": 8,
            "TEXCOORD_0": 10
          },
          "indices": 11,
          "material": 2,
          "mode": 4
        }
      ]
    },
    {
      "name": "Futuristic_interior_builder_a1_Glass_0",
      "primitives": [
        {
          "attributes": {
            "NORMAL": 13,
            "POSITION": 12,
            "TEXCOORD_0": 14
          },
          "indices": 15,
          "material": 3,
          "mode": 4
        }
      ]
    },
    {
      "name": "Futuristic_interior_builder_a1_Floor_0",
      "primitives": [
        {
          "attributes": {
            "NORMAL": 17,
            "POSITION": 16,
            "TEXCOORD_0": 18
          },
          "indices": 19,
          "material": 4,
          "mode": 4
        }
      ]
    }
  ],
  "nodes": [
    {
      "children": [
        1
      ],
      "matrix": [
        1.0,
        0.0,
        0.0,
        0.0,
        0.0,
        2.220446049250313e-16,
        -1.0,
        0.0,
        0.0,
        1.0,
        2.220446049250313e-16,
        0.0,
        0.0,
        0.0,
        0.0,
        1.0
      ],
      "name": "Sketchfab_model"
    },
    {
      "children": [
        2
      ],
      "matrix": [
        0.009999999776482582,
        0.0,
        0.0,
        0.0,
        0.0,
        0.0,
        0.009999999776482582,
        0.0,
        0.0,
        -0.009999999776482582,
        0.0,
        0.0,
        0.0,
        0.0,
        0.0,
        1.0
      ],
      "name": "094a63d6fd5d4d28a70ef82dffcd37ea.fbx"
    },
    {
      "children": [
        3
      ],
      "name": "RootNode"
    },
    {
      "children": [
        4,
        5,
        6,
        7,
        8
      ],
      "name": "Futuristic_interior_builder_a1"
    },
    {
      "mesh": 0,
      "name": "Futuristic_interior_builder_a1_Walls_0"
    },
    {
      "mesh": 1,
      "name": "Futuristic_interior_builder_a1_Metal_0"
    },
    {
      "mesh": 2,
      "name": "Futuristic_interior_builder_a1_Light_0"
    },
    {
      "mesh": 3,
      "name": "Futuristic_interior_builder_a1_Glass_0"
    },
    {
      "mesh": 4,
      "name": "Futuristic_interior_builder_a1_Floor_0"
    }
  ],
  "scene": 0,
  "scenes": [
    {
      "name": "Sketchfab_Scene",
      "nodes": [
        0
      ]
    }
  ]
}
