{
  "accessors": [
    {
      "bufferView": 2,
      "componentType": 5126,
      "count": 65532,
      "max": [
        15.790801048278809,
        -0.2405441552400589,
        7.806766510009766
      ],
      "min": [
        -15.67431354522705,
        -27.299333572387695,
        -28.05293083190918
      ],
      "type": "VEC3"
    },
    {
      "bufferView": 2,
      "byteOffset": 786384,
      "componentType": 5126,
      "count": 65532,
      "max": [
        0.9999915361404419,
        0.9999995827674866,
        0.9999859929084778
      ],
      "min": [
        -0.9999937415122986,
        -0.9999658465385437,
        -0.9999940991401672
      ],
      "type": "VEC3"
    },
    {
      "bufferView": 1,
      "componentType": 5126,
      "count": 65532,
      "max": [
        0.9996160268783569,
        0.9997490048408508
      ],
      "min": [
        0.0002690000110305846,
        0.000387999985832721
      ],
      "type": "VEC2"
    },
    {
      "bufferView": 0,
      "componentType": 5125,
      "count": 209928,
      "type": "SCALAR"
    },
    {
      "bufferView": 2,
      "byteOffset": 1572768,
      "componentType": 5126,
      "count": 63276,
      "max": [
        15.798383712768555,
        -0.2405441552400589,
        7.806296348571777
      ],
      "min": [
        -15.67431354522705,
        -27.093168258666992,
        -28.00457000732422
      ],
      "type": "VEC3"
    },
    {
      "bufferView": 2,
      "byteOffset": 2332080,
      "componentType": 5126,
      "count": 63276,
      "max": [
        0.9999803900718689,
        0.9999939799308777,
        0.9999752640724182
      ],
      "min": [
        -0.9999966621398926,
        -0.9995236396789551,
        -0.9999421834945679
      ],
      "type": "VEC3"
    },
    {
      "bufferView": 1,
      "byteOffset": 524256,
      "componentType": 5126,
      "count": 63276,
      "max": [
        0.9996309876441956,
        0.9997550249099731
      ],
      "min": [
        0.0002469999890308827,
        0.00037399999564513564
      ],
      "type": "VEC2"
    },
    {
      "bufferView": 0,
      "byteOffset": 839712,
      "componentType": 5125,
      "count": 96183,
      "type": "SCALAR"
    }
  ],
  "asset": {
    "extras": {
      "author": "Matthew Brennan (https://sketchfab.com/matthewbrennan)",
      "license": "SKETCHFAB Standard (https://sketchfab.com/licenses)",
      "source": "https://sketchfab.com/3d-models/pantheon-interior-a5223378f80f4b87acb4491f1f4f920a",
      "title": "Pantheon Interior"
    },
    "generator": "Sketchfab-15.22.0",
    "version": "2.0"
  },
  "bufferViews": [
    {
      "buffer": 0,
      "byteLength": 1224444,
      "name": "floatBufferViews",
      "target": 34963
    },
    {
      "buffer": 0,
      "byteLength": 1030464,
      "byteOffset": 1224444,
      "byteStride": 8,
      "name": "floatBufferViews",
      "target": 34962
    },
    {
      "buffer": 0,
      "byteLength": 3091392,
      "byteOffset": 2254908,
      "byteStride": 12,
      "name": "floatBufferViews",
      "target": 34962
    }
  ],
  "buffers": [
    {
      "byteLength": 5346300,
      "uri": "scene.bin"
    }
  ],
  "images": [
    {
      "uri": "textures/pantheon_interiorUVD_Material_u1_v1_baseColor.jpeg"
    }
  ],
  "materials": [
    {
      "doubleSided": true,
      "name": "pantheon_interiorUVD_Material_u1_v1",
      "pbrMetallicRoughness": {
        "baseColorTexture": {
          "index": 0
        },
        "metallicFactor": 0.0,
        "roughnessFactor": 0.9
      }
    }
  ],
  "meshes": [
    {
      "name": "Object_0",
      "primitives": [
        {
          "attributes": {
            "NORMAL": 1,
            "POSITION": 0,
            "TEXCOORD_0": 2
          },
          "indices": 3,
          "material": 0,
          "mode": 4
        }
      ]
    },
    {
      "name": "Object_1",
      "primitives": [
        {
          "attributes": {
            "NORMAL": 5,
            "POSITION": 4,
            "TEXCOORD_0": 6
          },
          "indices": 7,
          "material": 0,
          "mode": 4
        }
      ]
    }
  ],
  "nodes": [
    {
      "children": [
        1
      ],
      "matrix": [
        -0.9920892715454102,
        5.539249713547077e-17,
        0.12553437054157257,
        0.0,
        -4.163336342344337e-17,
        -1.0,
        2.220446049250313e-16,
        0.0,
        0.12553437054157257,
        -1.0926576788814705e-16,
        0.9920892715454102,
        0.0,
        0.0,
        0.0,
        0.0,
        1.0
      ],
      "name": "Sketchfab_model"
    },
    {
      "children": [
        2,
        3
      ],
      "name": "pantheon_interiorUVD.obj.cleaner.materialmerger.gles"
    },
    {
      "mesh": 0,
      "name": "Object_2"
    },
    {
      "mesh": 1,
      "name": "Object_3"
    }
  ],
  "samplers": [
    {
      "magFilter": 9729,
      "minFilter": 9729,
      "wrapS": 10497,
      "wrapT": 10497
    }
  ],
  "scene": 0,
  "scenes": [
    {
      "name": "Sketchfab_Scene",
      "nodes": [
        0
      ]
    }
  ],
  "textures": [
    {
      "sampler": 0,
      "source": 0
    }
  ]
}
